<?xml version="1.0" encoding="UTF-8" standalone="no"?>
<!-- Created with Inkscape (http://www.inkscape.org/) -->

<svg
   xmlns:dc="http://purl.org/dc/elements/1.1/"
   xmlns:cc="http://creativecommons.org/ns#"
   xmlns:rdf="http://www.w3.org/1999/02/22-rdf-syntax-ns#"
   xmlns:svg="http://www.w3.org/2000/svg"
   xmlns="http://www.w3.org/2000/svg"
   xmlns:xlink="http://www.w3.org/1999/xlink"
   xmlns:sodipodi="http://sodipodi.sourceforge.net/DTD/sodipodi-0.dtd"
   xmlns:inkscape="http://www.inkscape.org/namespaces/inkscape"
   width="14in"
   height="8.5in"
   viewBox="0 0 355.6 215.9"
   version="1.1"
   id="svg8"
   inkscape:version="0.92.1 r15371"
   sodipodi:docname="logo.svg">
  <defs
     id="defs2">
    <linearGradient
       gradientUnits="userSpaceOnUse"
       y2="193.04749"
       x2="117.83606"
       y1="193.04749"
       x1="0.069745161"
       id="linearGradient6674"
       xlink:href="#linearGradient6714-1" />
    <linearGradient
       id="linearGradient6714-1">
      <stop
         id="stop6710"
         offset="0"
         style="stop-color:#6a006a;stop-opacity:1;" />
      <stop
         style="stop-color:#6a006a;stop-opacity:0.627"
         offset="0.50952911"
         id="stop6716" />
      <stop
         id="stop6712"
         offset="1"
         style="stop-color:#6a006a;stop-opacity:0;" />
    </linearGradient>
    <linearGradient
       gradientUnits="userSpaceOnUse"
       y2="193.04749"
       x2="117.83606"
       y1="193.04749"
       x1="0.069745161"
       id="linearGradient6708"
       xlink:href="#linearGradient6670" />
    <linearGradient
       id="linearGradient6670">
      <stop
         style="stop-color:#6a006a;stop-opacity:1;"
         offset="0"
         id="stop6676" />
      <stop
         style="stop-color:#6a006a;stop-opacity:0;"
         offset="1"
         id="stop6678" />
    </linearGradient>
  </defs>
  <sodipodi:namedview
     id="base"
     pagecolor="#ffffff"
     bordercolor="#666666"
     borderopacity="1.0"
     inkscape:pageopacity="0.0"
     inkscape:pageshadow="2"
     inkscape:zoom="0.59972222"
     inkscape:cx="561.25984"
     inkscape:cy="384.15573"
     inkscape:document-units="mm"
     inkscape:current-layer="layer1"
     showgrid="false"
     units="in"
     inkscape:window-width="1366"
     inkscape:window-height="705"
     inkscape:window-x="-8"
     inkscape:window-y="-8"
     inkscape:window-maximized="1" />
  <metadata
     id="metadata5">
    <rdf:RDF>
      <cc:Work
         rdf:about="">
        <dc:format>image/svg+xml</dc:format>
        <dc:type
           rdf:resource="http://purl.org/dc/dcmitype/StillImage" />
        <dc:title></dc:title>
      </cc:Work>
    </rdf:RDF>
  </metadata>
  <g
     inkscape:label="Capa 1"
     inkscape:groupmode="layer"
     id="layer1"
     transform="translate(0,-81.1)">
    <g
       id="layer1-15"
       transform="matrix(2.8472257,0,0,3.711536,-0.14793011,86.134084)">
      <g
         id="layer1-1"
         transform="translate(-31.406895,-90.148581)">
        <g
           transform="translate(-5.6468564,-17.197256)"
           id="g6732">
          <g
             transform="translate(3.4806441,-14.270641)"
             id="g7417">
            <g
               transform="translate(35.959095,-42.391594)"
               id="g571">
              <g
                 id="g5081" />
              <path
                 id="path573"
                 d="m 2.5426473,206.38887 c -0.460878,-0.13662 -1.140749,-0.60825 -1.510827,-1.04806 -1.33310997,-1.58431 -1.28248697,-1.89275 1.813555,-11.04975 1.55972,-4.6131 3.32733,-9.84597 3.928023,-11.6286 l 1.092168,-3.24115 H 11.11319 c 1.786193,0 3.247623,0.0964 3.247623,0.21431 0,0.11787 -1.253035,3.8853 -2.784521,8.37207 -1.531487,4.48678 -2.7448237,8.19747 -2.6963037,8.24599 0.04852,0.0485 3.8832537,-3.71891 8.5216317,-8.37208 l 8.433414,-8.46029 h 3.686386 3.686384 l -1.004001,1.12448 c -0.552201,0.61846 -6.273371,6.45582 -12.713711,12.97191 -12.1925897,12.33599 -12.5536757,12.64736 -15.0511537,12.97903 -0.582083,0.0773 -1.435414,0.0288 -1.896291,-0.10786 z m 26.0881177,-2.82433 c -0.533325,-1.70987 -0.637422,-3.25768 -0.706753,-3.43958 -0.09887,-0.25938 1.37025,-0.33073 6.809719,-0.33073 5.440873,0 6.421807,-0.0713 6.32085,-0.33073 -0.07078,-0.1819 -1.850951,-2.83069 -3.593947,-6.09164 l -3.779675,-7.07134 5.334402,1.38283 4.533742,0.0724 2.499444,3.96875 c 4.279022,6.79446 4.712169,8.08199 3.629068,10.78753 -0.810136,2.02369 -2.181625,3.44322 -3.746511,3.87777 -0.602115,0.16719 -4.029819,0.28131 -8.47629,0.28219 l -7.465377,0.001 z m 21.977966,2.89017 c 0,0 1.094413,-3.72193 2.550883,-8.00365 5.218348,-15.34086 5.102979,-14.79621 6.425948,-16.21188 1.29684,-1.38772 2.998494,-2.37339 4.600356,-2.66473 0.761651,-0.13853 1.29028,-0.0477 2.153277,0.3701 2.023663,0.97964 3.125687,3.14293 4.364641,8.56789 0.427398,1.87142 0.823548,3.44905 0.880338,3.50584 0.0568,0.0568 1.38159,-1.31839 2.94401,-3.05594 6.77604,-7.53558 10.43329,-10.07174 13.37974,-9.27835 1.73733,0.46782 2.89782,2.28298 2.55511,3.99654 -0.088,0.44009 -1.8582,5.79323 -3.93373,11.89586 l -3.7737,11.0957 -3.24115,5.3e-4 c -1.78262,2.6e-4 -3.24114,-0.0958 -3.24114,-0.21366 0,-0.11786 1.25304,-3.8853 2.78452,-8.37207 1.501946,-4.46989 1.116776,-7.27605 2.68371,-8.25858 -0.0554,-0.0555 -1.21319,1.16259 -2.57277,2.70674 -4.87061,5.53196 -8.167099,8.05293 -10.530059,8.05293 -0.839076,0 -1.295358,-0.19064 -2.057104,-0.85946 -1.272616,-1.11737 -4.729106,-4.42933 -2.858344,-6.67468 -0.39063,-1.74268 -0.746106,-3.20438 -0.78995,-3.24822 -0.04384,-0.0438 -1.376294,3.73329 -2.961005,8.39363 l -2.881289,8.47334 -3.241146,5.3e-4 c -1.78263,2.2e-4 -3.241146,-0.21829 -3.241146,-0.21829 z m 34.680443,-0.49645 c 2.44415,-2.72498 24.319596,-24.6933 25.153716,-25.26051 2.2408,-1.52377 5.10434,-1.49731 6.41412,0.0593 1.26901,1.50814 1.20563,2.13443 -0.82423,8.14452 l -1.84701,5.46873 -3.33168,0.0739 -3.33167,0.0739 0.77821,-2.30225 c 0.42802,-1.26624 0.74315,-2.33732 0.7003,-2.38017 -0.0429,-0.0429 -1.43927,1.28731 -3.10314,2.95591 l -3.02523,3.03383 h 5.3535 c 2.94443,0 5.35357,0.0893 5.35365,0.19843 8e-5,0.10915 -0.8036,2.54873 -1.78594,5.4213 l -1.78609,5.22287 -3.24114,0.003 c -1.78263,0.002 -3.24115,-0.0978 -3.24115,-0.22051 0,-0.12274 0.23813,-0.91528 0.52917,-1.76121 0.29104,-0.84593 0.52917,-1.63847 0.52917,-1.76121 0,-0.12275 -1.87822,-0.22318 -4.17381,-0.22318 h -4.173806 l -1.97113,1.98438 -1.97113,1.98437 h -3.82306 -3.82306 z m -50.818923,-21.8406 c 0.909756,-2.51595 2.181889,-3.95091 3.916749,-4.41806 0.672652,-0.18113 3.574388,-0.2612 7.851579,-0.21665 l 6.784597,0.0707 1.039124,3.175 c 0.571519,1.74625 1.0403,3.26429 1.041736,3.37343 0.0013,0.10914 -4.818168,0.19844 -10.710233,0.19844 H 33.680959 Z"
                 style="opacity:1;fill:url(#linearGradient6674);fill-opacity:1;fill-rule:nonzero;stroke:url(#linearGradient6708);stroke-width:0.26499999;stroke-miterlimit:4;stroke-dasharray:none;stroke-opacity:1"
                 inkscape:connector-curvature="0" />
            </g>
            <g
               id="g6735"
               transform="translate(28.274315,-24.016544)">
              <g
                 id="g6742">
                <g
                   id="g6751">
                  <g
                     id="g6746">
                    <g
                       id="g6738">
                      <path
                         style="fill:#000000;stroke-width:0.26458335"
                         d="m 5.37642,174.27537 v -28.31042 h 62.57396 62.57397 v 28.31042 28.31041 H 67.95038 5.37642 Z m 9.305414,13.04313 c 0.841127,-0.45527 5.262066,-4.75598 13.847139,-13.47054 L 41.140489,161.0462 h -3.934521 l -3.605056,-4e-5 -8.477452,8.33442 c -4.571341,4.49421 -8.240967,8.33437 -8.354612,8.33437 -0.113644,0 1.027038,-3.64325 2.534848,-8.09611 1.507811,-4.45287 2.741474,-8.20334 2.741474,-8.33438 0,-0.13104 -1.472203,-0.23826 -3.271564,-0.23826 h -3.271564 l -3.874901,11.44323 c -2.131196,6.29378 -3.4511365,11.77656 -3.4496425,12.18397 0.0053,1.43244 0.7112715,2.91844 2.1314295,3.36287 1.111507,0.34784 2.966768,0.0433 4.372906,-0.71777 z m 39.196663,0.69654 c 1.536385,-0.42663 2.923484,-1.98683 3.615682,-4.06688 0.909396,-2.73274 0.631669,-3.53121 -3.660318,-10.52343 l -2.552231,-4.15793 -4.579679,-0.009 c -2.518823,-0.005 -4.525513,0.08 -4.459314,0.18918 2.661658,4.38817 7.054618,11.77141 7.054618,11.85669 0,0.0636 -3.095626,0.1157 -6.879167,0.1157 -3.783542,0 -6.879167,0.0891 -6.879167,0.19805 0,0.10892 0.486111,1.65673 1.080246,3.43958 l 1.080249,3.24153 7.584855,-0.002 c 4.523452,-8e-4 7.992261,-0.11461 8.594226,-0.28177 z m 12.49948,-4.28082 c 2.43967,-7.35333 4.14251,-12.13631 4.273974,-12.00485 0.06731,0.0673 0.411342,1.47137 0.764524,3.12013 1.429946,6.67544 4.086493,8.31097 7.985708,6.36791 1.468499,-1.46097 4.948623,-4.07422 7.862461,-7.44544 1.01847,-1.17834 1.92471,-2.14243 2.01387,-2.14243 0.0892,0 -1.07156,3.64325 -2.57937,8.09611 -1.50781,4.45286 -2.741472,8.20333 -2.741472,8.33438 0,0.13104 1.472203,0.23825 3.271562,0.23825 h 3.27157 l 3.874903,-11.44323 c 2.13119,-6.29377 3.87368,-11.78241 3.87218,-12.19698 -0.002,-0.41457 -0.19736,-1.16396 -0.43526,-1.66531 -0.94919,-2.00025 -3.64236,-2.35785 -6.471203,-0.85926 -1.89092,1.00173 -6.073506,4.89324 -9.765002,9.08544 l -2.248958,2.554 -0.303194,-1.13785 c -0.166757,-0.62581 -0.59784,-2.388 -0.957961,-3.91597 -0.360119,-1.52797 -0.933035,-3.36841 -1.273141,-4.08988 -0.834591,-1.7704 -2.305423,-3.19959 -3.529063,-3.42915 -2.19728,-0.41221 -5.5591,1.89672 -6.898563,4.18234 -0.579165,0.98827 -8.072454,21.99551 -8.072454,22.67174 0,0.13599 1.455145,0.24411 3.285318,0.24411 h 3.285316 z m 35.571383,2.57969 1.97113,-1.98438 h 4.17381 c 2.29559,0 4.17381,0.10043 4.17381,0.22317 0,0.12274 -0.23813,0.91528 -0.52917,1.76121 -0.29104,0.84593 -0.52917,1.63847 -0.52917,1.76121 0,0.12274 1.47839,0.22316 3.2853,0.22316 h 3.2853 l 1.74178,-5.22568 c 0.95798,-2.87412 1.74179,-5.3149 1.74179,-5.42395 0,-0.10906 -2.40899,-0.19828 -5.3533,-0.19828 h -5.3533 l 2.90139,-2.91042 c 1.59577,-1.60072 2.99147,-2.91041 3.10156,-2.91041 0.1101,0 -0.15577,0.97529 -0.5908,2.16731 -0.43503,1.19202 -0.79097,2.2076 -0.79097,2.25686 0,0.0493 1.51805,0.0562 3.37344,0.0155 l 3.37344,-0.074 1.76922,-5.15937 c 0.97306,-2.83766 1.77629,-5.5761 1.78494,-6.08542 0.0353,-2.0792 -1.63422,-3.57665 -3.95255,-3.54515 -2.69806,0.0367 -2.86574,0.55517 -16.70379,14.38856 l -12.708786,12.7045 h 3.931893 3.931895 z M 62.774466,167.59464 c -0.0091,-0.1819 -0.459534,-1.69995 -1.000975,-3.37344 l -0.984437,-3.0427 -7.00267,-0.0735 c -5.878912,-0.0617 -7.180424,-0.006 -8.110328,0.34618 -1.617496,0.61293 -2.801242,2.07622 -3.598992,4.44892 l -0.680951,2.02531 h 10.697446 c 8.390388,0 10.693879,-0.0713 10.680907,-0.33073 z"
                         id="path569"
                         inkscape:connector-curvature="0" />
                    </g>
                  </g>
                </g>
              </g>
            </g>
          </g>
        </g>
      </g>
    </g>
  </g>
</svg>
